Coordinates
version=1
nRows=8
nColumns=36
inDegrees=yes

Units are S.I. units (second, meters, Newtons, ...)
If the header above contains a line with 'inDegrees', this indicates whether rotational values are in degrees (yes) or radians (no).

endheader
time	pelvis_tilt	pelvis_list	pelvis_rotation	pelvis_tx	pelvis_ty	pelvis_tz	hip_flexion_r	hip_adduction_r	hip_rotation_r	knee_angle_r	knee_angle_r_beta	ankle_angle_r	subtalar_angle_r	mtp_angle_r	hip_flexion_l	hip_adduction_l	hip_rotation_l	knee_angle_l	knee_angle_l_beta	ankle_angle_l	subtalar_angle_l	mtp_angle_l	lumbar_extension	lumbar_bending	lumbar_rotation	arm_flex_r	arm_add_r	arm_rot_r	elbow_flex_r	pro_sup_r	arm_flex_l	arm_add_l	arm_rot_l	elbow_flex_l	pro_sup_l
      0.99000000	      1.24698584	      1.30117072	      2.08696935	      1.09617516	      0.94900614	     -0.24596384	     22.67141408	     -1.36963418	      2.15640160	      7.66326594	      0.13374922	      0.59530360	    -12.02810118	     -7.20618641	    -14.56440419	      6.11675141	      2.44863571	      2.80343914	      0.04892924	     12.73141270	     -3.11772537	     -7.20618641	     -8.08360561	     -2.80450335	     -8.32955886	    -13.06690574	     -3.11711085	    -12.94423185	     23.97112431	    112.62284318	     20.57487929	     -7.82494139	      8.62413678	     45.48364914	    109.08510053
      1.00000000	      1.04688703	      1.44741526	      2.33045294	      1.10868540	      0.94639964	     -0.24558534	     22.63355301	     -1.42821735	      2.14939325	      5.20304778	      0.09081031	      0.89119898	    -10.71967924	     -7.20867836	    -15.17879495	      6.13217146	      2.56587282	      2.90473081	      0.05069712	     12.99605097	     -2.91518831	     -7.20867836	     -7.88606501	     -3.03773432	     -8.52902873	    -13.43152994	     -3.07150507	    -13.08067090	     23.90264112	    112.62003946	     21.04900391	     -7.81515339	      8.79094487	     46.23168898	    109.13934523
      1.01000000	      1.22797815	      1.44507773	      2.52962453	      1.12150073	      0.94436539	     -0.24514346	     22.28496961	     -1.33541493	      1.22272842	      3.38687249	      0.05911208	      2.33047788	     -7.48879567	     -7.22334021	    -16.23593601	      5.94133100	      2.14975891	      2.94867704	      0.05146412	     13.72856434	     -1.75053693	     -7.22334021	     -8.16108819	     -3.03200252	     -8.93171847	    -13.59554840	     -2.99523400	    -13.74596342	     24.11684825	    112.64166567	     21.24613300	     -7.99418643	      8.82118314	     47.49189605	    109.08108641
      1.02000000	      1.21393641	      1.46783627	      2.66925400	      1.13431917	      0.94204871	     -0.24457233	     22.22988090	     -1.18583489	      0.66873151	      2.11251740	      0.03687038	      3.00754204	     -5.83596301	     -7.23555746	    -16.99020525	      5.80414397	      1.96842131	      3.16700045	      0.05527459	     14.11483340	     -1.32293886	     -7.23555746	     -8.15571248	     -3.08443088	     -9.13684260	    -13.77710862	     -2.96647009	    -14.04569548	     24.11850280	    112.67282261	     21.50419536	     -8.02960810	      8.84576602	     48.28836018	    109.05761830
      1.03000000	      1.21776601	      1.44112946	      2.74952150	      1.14731028	      0.93979108	     -0.24388569	     22.20223866	     -0.92115435	      0.22638003	      1.37108804	      0.02393000	      3.38265289	     -4.99633332	     -7.24014455	    -17.72794344	      5.62584852	      1.82103850	      3.46387878	      0.06045609	     14.32657573	     -1.20458261	     -7.24014455	     -8.15787116	     -3.07013879	     -9.25034115	    -13.93321203	     -2.98415666	    -14.18110195	     24.07769210	    112.66538646	     21.69690966	     -8.01976627	      8.89572317	     48.99668020	    109.09625298
      1.04000000	      1.09864937	      1.49901458	      2.71428990	      1.16041036	      0.93741883	     -0.24303344	     22.41243280	     -0.68455482	      0.13199735	      1.25591093	      0.02191978	      3.44308925	     -4.98303020	     -7.24036540	    -18.36583201	      5.57199883	      1.82472972	      3.68861409	      0.06437846	     14.29103109	     -1.18892020	     -7.24036540	     -7.92498644	     -3.18777850	     -9.32312190	    -14.02089221	     -3.03685795	    -14.20294344	     24.04754485	    112.66103013	     21.88617489	     -7.98956261	      8.88608590	     49.14198764	    109.10625210
      1.05000000	      1.20256476	      1.28044502	      2.76122396	      1.17399845	      0.93549003	     -0.24220952	     22.19586686	     -0.14963099	     -0.46954675	      1.19716081	      0.02089440	      3.79380328	     -4.86869942	     -7.24209482	    -19.07687224	      5.16493634	      1.63314405	      4.27627472	      0.07463507	     14.18715768	     -1.13218905	     -7.24209482	     -8.00442415	     -2.90634991	     -9.16100303	    -14.24737912	     -3.06332683	    -14.30874476	     23.93615590	    112.63720902	     21.89753926	     -7.79326425	      8.86912517	     49.90625162	    109.16090188
      1.06000000	      1.43863670	      1.00112193	      2.71468011	      1.18795481	      0.93390112	     -0.24121788	     21.84209996	      0.46766751	     -1.22367210	      1.53985889	      0.02687561	      4.12501651	     -4.07949298	     -7.25229546	    -19.89958633	      4.66496888	      0.88666753	      4.92038565	      0.08587693	     14.38627920	     -0.16680488	     -7.25229546	     -8.18231417	     -2.54086736	     -9.47761645	    -14.14499396	     -3.14315029	    -14.79924503	     24.15412834	    112.57365218	     21.27711835	     -7.81157001	      7.96561722	     51.33813176	    109.16803691
